<mxfile host="app.diagrams.net" modified="2023-11-30T19:06:48.388Z" agent="Mozilla/5.0 (Windows NT 10.0; Win64; x64) AppleWebKit/537.36 (KHTML, like Gecko) Chrome/119.0.0.0 Safari/537.36" etag="hql0yKJYL-NaMwVsBHNL" version="22.1.4" type="github">
  <diagram id="C5RBs43oDa-KdzZeNtuy" name="Page-1">
    <mxGraphModel dx="3554" dy="1049" grid="1" gridSize="10" guides="1" tooltips="1" connect="1" arrows="1" fold="1" page="1" pageScale="1" pageWidth="827" pageHeight="1169" math="0" shadow="0">
      <root>
        <mxCell id="WIyWlLk6GJQsqaUBKTNV-0" />
        <mxCell id="WIyWlLk6GJQsqaUBKTNV-1" parent="WIyWlLk6GJQsqaUBKTNV-0" />
        <mxCell id="hOBuzxRWUFeBeNqyW_Vz-10" style="edgeStyle=orthogonalEdgeStyle;rounded=0;orthogonalLoop=1;jettySize=auto;html=1;" edge="1" parent="WIyWlLk6GJQsqaUBKTNV-1" source="hOBuzxRWUFeBeNqyW_Vz-0" target="hOBuzxRWUFeBeNqyW_Vz-1">
          <mxGeometry relative="1" as="geometry" />
        </mxCell>
        <mxCell id="hOBuzxRWUFeBeNqyW_Vz-0" value="DB" style="shape=cylinder3;whiteSpace=wrap;html=1;boundedLbl=1;backgroundOutline=1;size=15;" vertex="1" parent="WIyWlLk6GJQsqaUBKTNV-1">
          <mxGeometry x="184" y="990" width="60" height="80" as="geometry" />
        </mxCell>
        <mxCell id="hOBuzxRWUFeBeNqyW_Vz-5" style="edgeStyle=orthogonalEdgeStyle;rounded=0;orthogonalLoop=1;jettySize=auto;html=1;" edge="1" parent="WIyWlLk6GJQsqaUBKTNV-1" source="hOBuzxRWUFeBeNqyW_Vz-1">
          <mxGeometry relative="1" as="geometry">
            <mxPoint x="384" y="910" as="targetPoint" />
          </mxGeometry>
        </mxCell>
        <mxCell id="hOBuzxRWUFeBeNqyW_Vz-8" style="edgeStyle=orthogonalEdgeStyle;rounded=0;orthogonalLoop=1;jettySize=auto;html=1;" edge="1" parent="WIyWlLk6GJQsqaUBKTNV-1" source="hOBuzxRWUFeBeNqyW_Vz-1" target="hOBuzxRWUFeBeNqyW_Vz-2">
          <mxGeometry relative="1" as="geometry" />
        </mxCell>
        <mxCell id="hOBuzxRWUFeBeNqyW_Vz-11" style="edgeStyle=orthogonalEdgeStyle;rounded=0;orthogonalLoop=1;jettySize=auto;html=1;" edge="1" parent="WIyWlLk6GJQsqaUBKTNV-1" source="hOBuzxRWUFeBeNqyW_Vz-1" target="hOBuzxRWUFeBeNqyW_Vz-0">
          <mxGeometry relative="1" as="geometry" />
        </mxCell>
        <mxCell id="hOBuzxRWUFeBeNqyW_Vz-1" value="Server" style="rounded=0;whiteSpace=wrap;html=1;" vertex="1" parent="WIyWlLk6GJQsqaUBKTNV-1">
          <mxGeometry x="324" y="1000" width="120" height="60" as="geometry" />
        </mxCell>
        <mxCell id="hOBuzxRWUFeBeNqyW_Vz-9" style="edgeStyle=orthogonalEdgeStyle;rounded=0;orthogonalLoop=1;jettySize=auto;html=1;" edge="1" parent="WIyWlLk6GJQsqaUBKTNV-1" source="hOBuzxRWUFeBeNqyW_Vz-2" target="hOBuzxRWUFeBeNqyW_Vz-1">
          <mxGeometry relative="1" as="geometry" />
        </mxCell>
        <mxCell id="hOBuzxRWUFeBeNqyW_Vz-2" value="KITE" style="rounded=0;whiteSpace=wrap;html=1;" vertex="1" parent="WIyWlLk6GJQsqaUBKTNV-1">
          <mxGeometry x="524" y="1000" width="120" height="60" as="geometry" />
        </mxCell>
        <mxCell id="hOBuzxRWUFeBeNqyW_Vz-4" style="edgeStyle=orthogonalEdgeStyle;rounded=0;orthogonalLoop=1;jettySize=auto;html=1;entryX=0.5;entryY=0;entryDx=0;entryDy=0;" edge="1" parent="WIyWlLk6GJQsqaUBKTNV-1" source="hOBuzxRWUFeBeNqyW_Vz-3" target="hOBuzxRWUFeBeNqyW_Vz-1">
          <mxGeometry relative="1" as="geometry" />
        </mxCell>
        <mxCell id="hOBuzxRWUFeBeNqyW_Vz-3" value="Client" style="rounded=0;whiteSpace=wrap;html=1;" vertex="1" parent="WIyWlLk6GJQsqaUBKTNV-1">
          <mxGeometry x="324" y="880" width="120" height="60" as="geometry" />
        </mxCell>
        <mxCell id="hOBuzxRWUFeBeNqyW_Vz-21" value="" style="edgeStyle=orthogonalEdgeStyle;rounded=0;orthogonalLoop=1;jettySize=auto;html=1;" edge="1" parent="WIyWlLk6GJQsqaUBKTNV-1" source="hOBuzxRWUFeBeNqyW_Vz-16" target="hOBuzxRWUFeBeNqyW_Vz-20">
          <mxGeometry relative="1" as="geometry" />
        </mxCell>
        <mxCell id="hOBuzxRWUFeBeNqyW_Vz-77" style="edgeStyle=orthogonalEdgeStyle;rounded=0;orthogonalLoop=1;jettySize=auto;html=1;entryX=0;entryY=0.5;entryDx=0;entryDy=0;" edge="1" parent="WIyWlLk6GJQsqaUBKTNV-1" source="hOBuzxRWUFeBeNqyW_Vz-16" target="hOBuzxRWUFeBeNqyW_Vz-18">
          <mxGeometry relative="1" as="geometry" />
        </mxCell>
        <mxCell id="hOBuzxRWUFeBeNqyW_Vz-16" value="Login" style="rhombus;whiteSpace=wrap;html=1;verticalAlign=top;" vertex="1" parent="WIyWlLk6GJQsqaUBKTNV-1">
          <mxGeometry x="-238.50000000000006" y="395" width="55" height="50" as="geometry" />
        </mxCell>
        <mxCell id="hOBuzxRWUFeBeNqyW_Vz-73" value="" style="edgeStyle=orthogonalEdgeStyle;rounded=0;orthogonalLoop=1;jettySize=auto;html=1;" edge="1" parent="WIyWlLk6GJQsqaUBKTNV-1" source="hOBuzxRWUFeBeNqyW_Vz-18" target="hOBuzxRWUFeBeNqyW_Vz-68">
          <mxGeometry relative="1" as="geometry" />
        </mxCell>
        <mxCell id="hOBuzxRWUFeBeNqyW_Vz-74" value="" style="edgeStyle=orthogonalEdgeStyle;rounded=0;orthogonalLoop=1;jettySize=auto;html=1;" edge="1" parent="WIyWlLk6GJQsqaUBKTNV-1" source="hOBuzxRWUFeBeNqyW_Vz-18" target="hOBuzxRWUFeBeNqyW_Vz-51">
          <mxGeometry relative="1" as="geometry">
            <Array as="points">
              <mxPoint x="13.5" y="520" />
              <mxPoint x="13.5" y="520" />
            </Array>
          </mxGeometry>
        </mxCell>
        <mxCell id="hOBuzxRWUFeBeNqyW_Vz-75" style="edgeStyle=orthogonalEdgeStyle;rounded=0;orthogonalLoop=1;jettySize=auto;html=1;entryX=0.5;entryY=0;entryDx=0;entryDy=0;" edge="1" parent="WIyWlLk6GJQsqaUBKTNV-1" source="hOBuzxRWUFeBeNqyW_Vz-18" target="hOBuzxRWUFeBeNqyW_Vz-58">
          <mxGeometry relative="1" as="geometry">
            <Array as="points">
              <mxPoint x="-13.5" y="490" />
              <mxPoint x="-93.5" y="490" />
            </Array>
          </mxGeometry>
        </mxCell>
        <mxCell id="hOBuzxRWUFeBeNqyW_Vz-76" value="" style="edgeStyle=orthogonalEdgeStyle;rounded=0;orthogonalLoop=1;jettySize=auto;html=1;" edge="1" parent="WIyWlLk6GJQsqaUBKTNV-1" source="hOBuzxRWUFeBeNqyW_Vz-18" target="hOBuzxRWUFeBeNqyW_Vz-47">
          <mxGeometry relative="1" as="geometry" />
        </mxCell>
        <mxCell id="hOBuzxRWUFeBeNqyW_Vz-18" value="Dashboard" style="whiteSpace=wrap;html=1;verticalAlign=top;" vertex="1" parent="WIyWlLk6GJQsqaUBKTNV-1">
          <mxGeometry x="-24.75000000000003" y="402.5" width="76" height="35" as="geometry" />
        </mxCell>
        <mxCell id="hOBuzxRWUFeBeNqyW_Vz-22" style="edgeStyle=orthogonalEdgeStyle;rounded=0;orthogonalLoop=1;jettySize=auto;html=1;entryX=0;entryY=0.5;entryDx=0;entryDy=0;" edge="1" parent="WIyWlLk6GJQsqaUBKTNV-1" source="hOBuzxRWUFeBeNqyW_Vz-20" target="hOBuzxRWUFeBeNqyW_Vz-16">
          <mxGeometry relative="1" as="geometry">
            <Array as="points">
              <mxPoint x="-293.50000000000006" y="480" />
              <mxPoint x="-293.50000000000006" y="415" />
            </Array>
          </mxGeometry>
        </mxCell>
        <mxCell id="hOBuzxRWUFeBeNqyW_Vz-20" value="Register" style="whiteSpace=wrap;html=1;verticalAlign=top;" vertex="1" parent="WIyWlLk6GJQsqaUBKTNV-1">
          <mxGeometry x="-273.50000000000006" y="460" width="120" height="30" as="geometry" />
        </mxCell>
        <mxCell id="hOBuzxRWUFeBeNqyW_Vz-24" value="Buy call" style="rounded=0;whiteSpace=wrap;html=1;" vertex="1" parent="WIyWlLk6GJQsqaUBKTNV-1">
          <mxGeometry x="490" y="310" width="90" height="40" as="geometry" />
        </mxCell>
        <mxCell id="hOBuzxRWUFeBeNqyW_Vz-25" value="Sell Call" style="rounded=0;whiteSpace=wrap;html=1;" vertex="1" parent="WIyWlLk6GJQsqaUBKTNV-1">
          <mxGeometry x="596" y="340" width="90" height="40" as="geometry" />
        </mxCell>
        <mxCell id="hOBuzxRWUFeBeNqyW_Vz-26" value="Sell Put" style="rounded=0;whiteSpace=wrap;html=1;" vertex="1" parent="WIyWlLk6GJQsqaUBKTNV-1">
          <mxGeometry x="490" y="370" width="90" height="40" as="geometry" />
        </mxCell>
        <mxCell id="hOBuzxRWUFeBeNqyW_Vz-27" value="Buy Put" style="rounded=0;whiteSpace=wrap;html=1;" vertex="1" parent="WIyWlLk6GJQsqaUBKTNV-1">
          <mxGeometry x="596" y="400" width="90" height="40" as="geometry" />
        </mxCell>
        <mxCell id="hOBuzxRWUFeBeNqyW_Vz-28" value="Cancel All Orders" style="rounded=0;whiteSpace=wrap;html=1;" vertex="1" parent="WIyWlLk6GJQsqaUBKTNV-1">
          <mxGeometry x="490" y="430" width="90" height="40" as="geometry" />
        </mxCell>
        <mxCell id="hOBuzxRWUFeBeNqyW_Vz-31" value="Exit all orders" style="rounded=0;whiteSpace=wrap;html=1;" vertex="1" parent="WIyWlLk6GJQsqaUBKTNV-1">
          <mxGeometry x="596" y="460" width="90" height="40" as="geometry" />
        </mxCell>
        <mxCell id="hOBuzxRWUFeBeNqyW_Vz-32" value="Exit order" style="rounded=0;whiteSpace=wrap;html=1;" vertex="1" parent="WIyWlLk6GJQsqaUBKTNV-1">
          <mxGeometry x="490" y="490" width="90" height="40" as="geometry" />
        </mxCell>
        <mxCell id="hOBuzxRWUFeBeNqyW_Vz-36" style="edgeStyle=orthogonalEdgeStyle;rounded=0;orthogonalLoop=1;jettySize=auto;html=1;entryX=0;entryY=0.75;entryDx=0;entryDy=0;" edge="1" parent="WIyWlLk6GJQsqaUBKTNV-1" source="hOBuzxRWUFeBeNqyW_Vz-33" target="hOBuzxRWUFeBeNqyW_Vz-24">
          <mxGeometry relative="1" as="geometry" />
        </mxCell>
        <mxCell id="hOBuzxRWUFeBeNqyW_Vz-37" style="edgeStyle=orthogonalEdgeStyle;rounded=0;orthogonalLoop=1;jettySize=auto;html=1;entryX=0;entryY=0.5;entryDx=0;entryDy=0;" edge="1" parent="WIyWlLk6GJQsqaUBKTNV-1" source="hOBuzxRWUFeBeNqyW_Vz-33" target="hOBuzxRWUFeBeNqyW_Vz-25">
          <mxGeometry relative="1" as="geometry">
            <Array as="points">
              <mxPoint x="450" y="420" />
              <mxPoint x="450" y="360" />
            </Array>
          </mxGeometry>
        </mxCell>
        <mxCell id="hOBuzxRWUFeBeNqyW_Vz-38" style="edgeStyle=orthogonalEdgeStyle;rounded=0;orthogonalLoop=1;jettySize=auto;html=1;exitX=1;exitY=0.5;exitDx=0;exitDy=0;" edge="1" parent="WIyWlLk6GJQsqaUBKTNV-1" source="hOBuzxRWUFeBeNqyW_Vz-33" target="hOBuzxRWUFeBeNqyW_Vz-26">
          <mxGeometry relative="1" as="geometry">
            <Array as="points">
              <mxPoint x="450" y="420" />
              <mxPoint x="450" y="370" />
            </Array>
          </mxGeometry>
        </mxCell>
        <mxCell id="hOBuzxRWUFeBeNqyW_Vz-41" style="edgeStyle=orthogonalEdgeStyle;rounded=0;orthogonalLoop=1;jettySize=auto;html=1;" edge="1" parent="WIyWlLk6GJQsqaUBKTNV-1" source="hOBuzxRWUFeBeNqyW_Vz-33" target="hOBuzxRWUFeBeNqyW_Vz-27">
          <mxGeometry relative="1" as="geometry" />
        </mxCell>
        <mxCell id="hOBuzxRWUFeBeNqyW_Vz-42" style="edgeStyle=orthogonalEdgeStyle;rounded=0;orthogonalLoop=1;jettySize=auto;html=1;entryX=0;entryY=0.5;entryDx=0;entryDy=0;" edge="1" parent="WIyWlLk6GJQsqaUBKTNV-1" source="hOBuzxRWUFeBeNqyW_Vz-33" target="hOBuzxRWUFeBeNqyW_Vz-28">
          <mxGeometry relative="1" as="geometry" />
        </mxCell>
        <mxCell id="hOBuzxRWUFeBeNqyW_Vz-43" style="edgeStyle=orthogonalEdgeStyle;rounded=0;orthogonalLoop=1;jettySize=auto;html=1;entryX=0;entryY=0.5;entryDx=0;entryDy=0;" edge="1" parent="WIyWlLk6GJQsqaUBKTNV-1" source="hOBuzxRWUFeBeNqyW_Vz-33" target="hOBuzxRWUFeBeNqyW_Vz-31">
          <mxGeometry relative="1" as="geometry">
            <Array as="points">
              <mxPoint x="450" y="420" />
              <mxPoint x="450" y="480" />
            </Array>
          </mxGeometry>
        </mxCell>
        <mxCell id="hOBuzxRWUFeBeNqyW_Vz-44" style="edgeStyle=orthogonalEdgeStyle;rounded=0;orthogonalLoop=1;jettySize=auto;html=1;entryX=0;entryY=0.5;entryDx=0;entryDy=0;" edge="1" parent="WIyWlLk6GJQsqaUBKTNV-1" source="hOBuzxRWUFeBeNqyW_Vz-33" target="hOBuzxRWUFeBeNqyW_Vz-32">
          <mxGeometry relative="1" as="geometry" />
        </mxCell>
        <mxCell id="hOBuzxRWUFeBeNqyW_Vz-45" style="edgeStyle=orthogonalEdgeStyle;rounded=0;orthogonalLoop=1;jettySize=auto;html=1;entryX=0;entryY=0.5;entryDx=0;entryDy=0;" edge="1" parent="WIyWlLk6GJQsqaUBKTNV-1" source="hOBuzxRWUFeBeNqyW_Vz-33" target="hOBuzxRWUFeBeNqyW_Vz-34">
          <mxGeometry relative="1" as="geometry">
            <Array as="points">
              <mxPoint x="450" y="420" />
              <mxPoint x="450" y="540" />
            </Array>
          </mxGeometry>
        </mxCell>
        <mxCell id="hOBuzxRWUFeBeNqyW_Vz-33" value="Select Index and other info" style="rounded=0;whiteSpace=wrap;html=1;" vertex="1" parent="WIyWlLk6GJQsqaUBKTNV-1">
          <mxGeometry x="322.5" y="400" width="90" height="40" as="geometry" />
        </mxCell>
        <mxCell id="hOBuzxRWUFeBeNqyW_Vz-34" value="Set stop loss" style="rounded=0;whiteSpace=wrap;html=1;" vertex="1" parent="WIyWlLk6GJQsqaUBKTNV-1">
          <mxGeometry x="596" y="520" width="90" height="40" as="geometry" />
        </mxCell>
        <mxCell id="hOBuzxRWUFeBeNqyW_Vz-61" value="" style="edgeStyle=orthogonalEdgeStyle;rounded=0;orthogonalLoop=1;jettySize=auto;html=1;" edge="1" parent="WIyWlLk6GJQsqaUBKTNV-1" source="hOBuzxRWUFeBeNqyW_Vz-47" target="hOBuzxRWUFeBeNqyW_Vz-60">
          <mxGeometry relative="1" as="geometry" />
        </mxCell>
        <mxCell id="hOBuzxRWUFeBeNqyW_Vz-47" value="Trade now button" style="whiteSpace=wrap;html=1;verticalAlign=top;" vertex="1" parent="WIyWlLk6GJQsqaUBKTNV-1">
          <mxGeometry x="89" y="405" width="95" height="30" as="geometry" />
        </mxCell>
        <mxCell id="hOBuzxRWUFeBeNqyW_Vz-51" value="Add Broker" style="whiteSpace=wrap;html=1;verticalAlign=top;" vertex="1" parent="WIyWlLk6GJQsqaUBKTNV-1">
          <mxGeometry x="-18.5" y="540" width="107.5" height="30" as="geometry" />
        </mxCell>
        <mxCell id="hOBuzxRWUFeBeNqyW_Vz-58" value="Generate Token" style="rounded=1;whiteSpace=wrap;html=1;verticalAlign=top;" vertex="1" parent="WIyWlLk6GJQsqaUBKTNV-1">
          <mxGeometry x="-153.5" y="545" width="120" height="20" as="geometry" />
        </mxCell>
        <mxCell id="hOBuzxRWUFeBeNqyW_Vz-62" value="" style="edgeStyle=orthogonalEdgeStyle;rounded=0;orthogonalLoop=1;jettySize=auto;html=1;" edge="1" parent="WIyWlLk6GJQsqaUBKTNV-1" source="hOBuzxRWUFeBeNqyW_Vz-60" target="hOBuzxRWUFeBeNqyW_Vz-33">
          <mxGeometry relative="1" as="geometry" />
        </mxCell>
        <mxCell id="hOBuzxRWUFeBeNqyW_Vz-64" value="" style="edgeStyle=orthogonalEdgeStyle;rounded=0;orthogonalLoop=1;jettySize=auto;html=1;" edge="1" parent="WIyWlLk6GJQsqaUBKTNV-1" source="hOBuzxRWUFeBeNqyW_Vz-60" target="hOBuzxRWUFeBeNqyW_Vz-63">
          <mxGeometry relative="1" as="geometry" />
        </mxCell>
        <mxCell id="hOBuzxRWUFeBeNqyW_Vz-60" value="&lt;br&gt;is token generated" style="rhombus;whiteSpace=wrap;html=1;verticalAlign=top;" vertex="1" parent="WIyWlLk6GJQsqaUBKTNV-1">
          <mxGeometry x="222.5" y="380" width="80" height="80" as="geometry" />
        </mxCell>
        <mxCell id="hOBuzxRWUFeBeNqyW_Vz-63" value="Warning: Generate access token" style="whiteSpace=wrap;html=1;verticalAlign=top;" vertex="1" parent="WIyWlLk6GJQsqaUBKTNV-1">
          <mxGeometry x="202.5" y="550" width="120" height="40" as="geometry" />
        </mxCell>
        <mxCell id="hOBuzxRWUFeBeNqyW_Vz-68" value="Logout" style="whiteSpace=wrap;html=1;verticalAlign=top;" vertex="1" parent="WIyWlLk6GJQsqaUBKTNV-1">
          <mxGeometry x="-46.75" y="330" width="120" height="30" as="geometry" />
        </mxCell>
        <mxCell id="hOBuzxRWUFeBeNqyW_Vz-72" style="edgeStyle=orthogonalEdgeStyle;rounded=0;orthogonalLoop=1;jettySize=auto;html=1;entryX=0.5;entryY=0;entryDx=0;entryDy=0;" edge="1" parent="WIyWlLk6GJQsqaUBKTNV-1" source="hOBuzxRWUFeBeNqyW_Vz-70" target="hOBuzxRWUFeBeNqyW_Vz-16">
          <mxGeometry relative="1" as="geometry" />
        </mxCell>
        <mxCell id="hOBuzxRWUFeBeNqyW_Vz-70" value="Start" style="ellipse;whiteSpace=wrap;html=1;" vertex="1" parent="WIyWlLk6GJQsqaUBKTNV-1">
          <mxGeometry x="-241.00000000000006" y="330" width="60" height="40" as="geometry" />
        </mxCell>
        <mxCell id="hOBuzxRWUFeBeNqyW_Vz-78" value="F&amp;amp;O Scalper System Design" style="text;html=1;align=center;verticalAlign=middle;resizable=0;points=[];autosize=1;strokeColor=none;fillColor=none;fontStyle=1" vertex="1" parent="WIyWlLk6GJQsqaUBKTNV-1">
          <mxGeometry x="302.5" y="1090" width="180" height="30" as="geometry" />
        </mxCell>
        <mxCell id="hOBuzxRWUFeBeNqyW_Vz-79" value="F&amp;amp;O Scalper Activity Diagram" style="text;html=1;align=center;verticalAlign=middle;resizable=0;points=[];autosize=1;strokeColor=none;fillColor=none;fontStyle=1" vertex="1" parent="WIyWlLk6GJQsqaUBKTNV-1">
          <mxGeometry x="125" y="620" width="190" height="30" as="geometry" />
        </mxCell>
      </root>
    </mxGraphModel>
  </diagram>
</mxfile>
